G04 #@! TF.GenerationSoftware,KiCad,Pcbnew,(5.1.6-0-10_14)*
G04 #@! TF.CreationDate,2020-08-10T19:17:23+02:00*
G04 #@! TF.ProjectId,red-lama,7265642d-6c61-46d6-912e-6b696361645f,rev?*
G04 #@! TF.SameCoordinates,Original*
G04 #@! TF.FileFunction,Legend,Bot*
G04 #@! TF.FilePolarity,Positive*
%FSLAX46Y46*%
G04 Gerber Fmt 4.6, Leading zero omitted, Abs format (unit mm)*
G04 Created by KiCad (PCBNEW (5.1.6-0-10_14)) date 2020-08-10 19:17:23*
%MOMM*%
%LPD*%
G01*
G04 APERTURE LIST*
%ADD10C,0.127000*%
%ADD11C,0.152400*%
G04 APERTURE END LIST*
D10*
X225425000Y-103759000D02*
G75*
G03*
X225425000Y-103759000I-635000J0D01*
G01*
D11*
X223139000Y-96774000D02*
X223139000Y-97409000D01*
X226441000Y-96774000D02*
X223139000Y-96774000D01*
X226441000Y-97409000D02*
X226441000Y-96774000D01*
X227076000Y-97409000D02*
X226441000Y-97409000D01*
X227076000Y-110109000D02*
X227076000Y-97409000D01*
X226441000Y-110109000D02*
X227076000Y-110109000D01*
X226441000Y-110744000D02*
X226441000Y-110109000D01*
X223139000Y-110744000D02*
X226441000Y-110744000D01*
X223139000Y-110109000D02*
X223139000Y-110744000D01*
X222504000Y-110109000D02*
X223139000Y-110109000D01*
X222504000Y-97409000D02*
X222504000Y-110109000D01*
X223139000Y-97409000D02*
X222504000Y-97409000D01*
D10*
X224155000Y-103759000D02*
X225425000Y-103759000D01*
X224790000Y-103124000D02*
X224790000Y-104394000D01*
X203921201Y-141700000D02*
G75*
G03*
X203921201Y-141700000I-635000J0D01*
G01*
X202651201Y-141700000D02*
X203921201Y-141700000D01*
X203286201Y-141065000D02*
X203286201Y-142335000D01*
D11*
X210906201Y-149320000D02*
X210906201Y-134080000D01*
X195666201Y-149320000D02*
X210906201Y-149320000D01*
X195666201Y-134080000D02*
X195666201Y-149320000D01*
X210906201Y-134080000D02*
X195666201Y-134080000D01*
D10*
X225044000Y-94234000D02*
X225044000Y-91186000D01*
X221996000Y-94234000D02*
X225044000Y-94234000D01*
X221996000Y-91186000D02*
X221996000Y-94234000D01*
X219964000Y-94234000D02*
X219964000Y-91186000D01*
X216916000Y-94234000D02*
X219964000Y-94234000D01*
X216916000Y-91186000D02*
X216916000Y-94234000D01*
X214884000Y-94234000D02*
X214884000Y-91186000D01*
X211836000Y-94234000D02*
X214884000Y-94234000D01*
X211836000Y-91186000D02*
X211836000Y-94234000D01*
X221996000Y-91186000D02*
X225044000Y-91186000D01*
X216916000Y-91186000D02*
X219964000Y-91186000D01*
X211836000Y-91186000D02*
X214884000Y-91186000D01*
X210820000Y-91059000D02*
X226060000Y-91059000D01*
X209550000Y-78105000D02*
X227330000Y-78105000D01*
X218440000Y-86995000D02*
X218440000Y-69215000D01*
X226060000Y-91059000D02*
X226060000Y-82550000D01*
X210820000Y-82550000D02*
X210820000Y-91059000D01*
X219338000Y-78105000D02*
G75*
G03*
X219338000Y-78105000I-898000J0D01*
G01*
X209550000Y-78105000D02*
G75*
G03*
X218440000Y-86995000I8890000J0D01*
G01*
X218440000Y-86995000D02*
G75*
G03*
X227330000Y-78105000I0J8890000D01*
G01*
X227330000Y-78105002D02*
G75*
G03*
X218440000Y-69215000I-8889901J101D01*
G01*
X218440002Y-69215000D02*
G75*
G03*
X209550000Y-78105000I-101J-8889901D01*
G01*
X219964000Y-97536000D02*
X216916000Y-97536000D01*
X219964000Y-100584000D02*
X219964000Y-97536000D01*
X216916000Y-100584000D02*
X219964000Y-100584000D01*
X219964000Y-102616000D02*
X216916000Y-102616000D01*
X219964000Y-105664000D02*
X219964000Y-102616000D01*
X216916000Y-105664000D02*
X219964000Y-105664000D01*
X219964000Y-107696000D02*
X216916000Y-107696000D01*
X219964000Y-110744000D02*
X219964000Y-107696000D01*
X216916000Y-110744000D02*
X219964000Y-110744000D01*
X216916000Y-100584000D02*
X216916000Y-97536000D01*
X216916000Y-105664000D02*
X216916000Y-102616000D01*
X216916000Y-110744000D02*
X216916000Y-107696000D01*
X216789000Y-111760000D02*
X216789000Y-96520000D01*
X203835000Y-113030000D02*
X203835000Y-95250000D01*
X212725000Y-104140000D02*
X194945000Y-104140000D01*
X216789000Y-96520000D02*
X208280000Y-96520000D01*
X208280000Y-111760000D02*
X216789000Y-111760000D01*
X204733000Y-104140000D02*
G75*
G03*
X204733000Y-104140000I-898000J0D01*
G01*
X203835000Y-113030000D02*
G75*
G03*
X212725000Y-104140000I0J8890000D01*
G01*
X212725000Y-104140000D02*
G75*
G03*
X203835000Y-95250000I-8890000J0D01*
G01*
X203835002Y-95250000D02*
G75*
G03*
X194945000Y-104140000I-101J-8889901D01*
G01*
X194945000Y-104139998D02*
G75*
G03*
X203835000Y-113030000I8889901J-101D01*
G01*
X195834000Y-94234000D02*
X195834000Y-91186000D01*
X192786000Y-94234000D02*
X195834000Y-94234000D01*
X192786000Y-91186000D02*
X192786000Y-94234000D01*
X190754000Y-94234000D02*
X190754000Y-91186000D01*
X187706000Y-94234000D02*
X190754000Y-94234000D01*
X187706000Y-91186000D02*
X187706000Y-94234000D01*
X185674000Y-94234000D02*
X185674000Y-91186000D01*
X182626000Y-94234000D02*
X185674000Y-94234000D01*
X182626000Y-91186000D02*
X182626000Y-94234000D01*
X192786000Y-91186000D02*
X195834000Y-91186000D01*
X187706000Y-91186000D02*
X190754000Y-91186000D01*
X182626000Y-91186000D02*
X185674000Y-91186000D01*
X181610000Y-91059000D02*
X196850000Y-91059000D01*
X180340000Y-78105000D02*
X198120000Y-78105000D01*
X189230000Y-86995000D02*
X189230000Y-69215000D01*
X196850000Y-91059000D02*
X196850000Y-82550000D01*
X181610000Y-82550000D02*
X181610000Y-91059000D01*
X190128000Y-78105000D02*
G75*
G03*
X190128000Y-78105000I-898000J0D01*
G01*
X180340000Y-78105000D02*
G75*
G03*
X189230000Y-86995000I8890000J0D01*
G01*
X189230000Y-86995000D02*
G75*
G03*
X198120000Y-78105000I0J8890000D01*
G01*
X198120000Y-78105002D02*
G75*
G03*
X189230000Y-69215000I-8889901J101D01*
G01*
X189230002Y-69215000D02*
G75*
G03*
X180340000Y-78105000I-101J-8889901D01*
G01*
D11*
X205740000Y-133350000D02*
X205740000Y-132080000D01*
X208280000Y-133350000D02*
X205740000Y-133350000D01*
X208280000Y-132080000D02*
X208280000Y-133350000D01*
X208280000Y-132080000D02*
X208280000Y-129540000D01*
X205740000Y-132080000D02*
X208280000Y-132080000D01*
X205740000Y-129540000D02*
X205740000Y-132080000D01*
X208280000Y-129540000D02*
X205740000Y-129540000D01*
X200660000Y-133350000D02*
X200660000Y-132080000D01*
X203200000Y-133350000D02*
X200660000Y-133350000D01*
X203200000Y-132080000D02*
X203200000Y-133350000D01*
X203200000Y-132080000D02*
X203200000Y-129540000D01*
X200660000Y-132080000D02*
X203200000Y-132080000D01*
X200660000Y-129540000D02*
X200660000Y-132080000D01*
X203200000Y-129540000D02*
X200660000Y-129540000D01*
X193040000Y-137795000D02*
X193040000Y-136525000D01*
X195580000Y-137795000D02*
X193040000Y-137795000D01*
X195580000Y-136525000D02*
X195580000Y-137795000D01*
X195580000Y-136525000D02*
X195580000Y-133985000D01*
X193040000Y-136525000D02*
X195580000Y-136525000D01*
X193040000Y-133985000D02*
X193040000Y-136525000D01*
X195580000Y-133985000D02*
X193040000Y-133985000D01*
X203200000Y-133350000D02*
X203200000Y-132080000D01*
X205740000Y-133350000D02*
X203200000Y-133350000D01*
X205740000Y-132080000D02*
X205740000Y-133350000D01*
X205740000Y-132080000D02*
X205740000Y-129540000D01*
X203200000Y-132080000D02*
X205740000Y-132080000D01*
X203200000Y-129540000D02*
X203200000Y-132080000D01*
X205740000Y-129540000D02*
X203200000Y-129540000D01*
X210820000Y-137795000D02*
X210820000Y-136525000D01*
X213360000Y-137795000D02*
X210820000Y-137795000D01*
X213360000Y-136525000D02*
X213360000Y-137795000D01*
X213360000Y-136525000D02*
X213360000Y-133985000D01*
X210820000Y-136525000D02*
X213360000Y-136525000D01*
X210820000Y-133985000D02*
X210820000Y-136525000D01*
X213360000Y-133985000D02*
X210820000Y-133985000D01*
X198120000Y-133350000D02*
X198120000Y-132080000D01*
X200660000Y-133350000D02*
X198120000Y-133350000D01*
X200660000Y-132080000D02*
X200660000Y-133350000D01*
X200660000Y-132080000D02*
X200660000Y-129540000D01*
X198120000Y-132080000D02*
X200660000Y-132080000D01*
X198120000Y-129540000D02*
X198120000Y-132080000D01*
X200660000Y-129540000D02*
X198120000Y-129540000D01*
X204470000Y-126365000D02*
X204470000Y-125095000D01*
X207010000Y-126365000D02*
X204470000Y-126365000D01*
X207010000Y-125095000D02*
X207010000Y-126365000D01*
X207010000Y-125095000D02*
X207010000Y-122555000D01*
X204470000Y-125095000D02*
X207010000Y-125095000D01*
X204470000Y-122555000D02*
X204470000Y-125095000D01*
X207010000Y-122555000D02*
X204470000Y-122555000D01*
X197485000Y-95250000D02*
X197485000Y-93980000D01*
X200025000Y-95250000D02*
X197485000Y-95250000D01*
X200025000Y-93980000D02*
X200025000Y-95250000D01*
X200025000Y-93980000D02*
X200025000Y-91440000D01*
X197485000Y-93980000D02*
X200025000Y-93980000D01*
X197485000Y-91440000D02*
X197485000Y-93980000D01*
X200025000Y-91440000D02*
X197485000Y-91440000D01*
X200660000Y-126365000D02*
X200660000Y-125095000D01*
X203200000Y-126365000D02*
X200660000Y-126365000D01*
X203200000Y-125095000D02*
X203200000Y-126365000D01*
X203200000Y-125095000D02*
X203200000Y-122555000D01*
X200660000Y-125095000D02*
X203200000Y-125095000D01*
X200660000Y-122555000D02*
X200660000Y-125095000D01*
X203200000Y-122555000D02*
X200660000Y-122555000D01*
X208280000Y-126365000D02*
X208280000Y-125095000D01*
X210820000Y-126365000D02*
X208280000Y-126365000D01*
X210820000Y-125095000D02*
X210820000Y-126365000D01*
X210820000Y-125095000D02*
X210820000Y-122555000D01*
X208280000Y-125095000D02*
X210820000Y-125095000D01*
X208280000Y-122555000D02*
X208280000Y-125095000D01*
X210820000Y-122555000D02*
X208280000Y-122555000D01*
X196850000Y-126365000D02*
X196850000Y-125095000D01*
X199390000Y-126365000D02*
X196850000Y-126365000D01*
X199390000Y-125095000D02*
X199390000Y-126365000D01*
X199390000Y-125095000D02*
X199390000Y-122555000D01*
X196850000Y-125095000D02*
X199390000Y-125095000D01*
X196850000Y-122555000D02*
X196850000Y-125095000D01*
X199390000Y-122555000D02*
X196850000Y-122555000D01*
X207645000Y-95250000D02*
X207645000Y-93980000D01*
X210185000Y-95250000D02*
X207645000Y-95250000D01*
X210185000Y-93980000D02*
X210185000Y-95250000D01*
X210185000Y-93980000D02*
X210185000Y-91440000D01*
X207645000Y-93980000D02*
X210185000Y-93980000D01*
X207645000Y-91440000D02*
X207645000Y-93980000D01*
X210185000Y-91440000D02*
X207645000Y-91440000D01*
M02*
