G04 #@! TF.GenerationSoftware,KiCad,Pcbnew,(5.1.6-0-10_14)*
G04 #@! TF.CreationDate,2020-08-10T19:17:23+02:00*
G04 #@! TF.ProjectId,red-lama,7265642d-6c61-46d6-912e-6b696361645f,rev?*
G04 #@! TF.SameCoordinates,Original*
G04 #@! TF.FileFunction,Copper,L1,Top*
G04 #@! TF.FilePolarity,Positive*
%FSLAX46Y46*%
G04 Gerber Fmt 4.6, Leading zero omitted, Abs format (unit mm)*
G04 Created by KiCad (PCBNEW (5.1.6-0-10_14)) date 2020-08-10 19:17:23*
%MOMM*%
%LPD*%
G01*
G04 APERTURE LIST*
G04 #@! TA.AperFunction,ComponentPad*
%ADD10O,1.981200X1.981200*%
G04 #@! TD*
G04 #@! TA.AperFunction,ComponentPad*
%ADD11R,1.981200X1.981200*%
G04 #@! TD*
G04 #@! TA.AperFunction,ComponentPad*
%ADD12O,3.416000X3.416000*%
G04 #@! TD*
G04 #@! TA.AperFunction,ComponentPad*
%ADD13R,3.416000X3.416000*%
G04 #@! TD*
G04 #@! TA.AperFunction,ComponentPad*
%ADD14R,3.816000X3.816000*%
G04 #@! TD*
G04 #@! TA.AperFunction,ComponentPad*
%ADD15O,3.816000X3.816000*%
G04 #@! TD*
G04 #@! TA.AperFunction,ComponentPad*
%ADD16O,2.540000X2.540000*%
G04 #@! TD*
G04 #@! TA.AperFunction,ComponentPad*
%ADD17R,2.540000X2.540000*%
G04 #@! TD*
G04 #@! TA.AperFunction,ComponentPad*
%ADD18O,2.000000X2.000000*%
G04 #@! TD*
G04 #@! TA.AperFunction,ComponentPad*
%ADD19O,2.032000X2.032000*%
G04 #@! TD*
G04 #@! TA.AperFunction,ComponentPad*
%ADD20R,2.000000X2.000000*%
G04 #@! TD*
G04 #@! TA.AperFunction,ComponentPad*
%ADD21C,1.800000*%
G04 #@! TD*
G04 #@! TA.AperFunction,ComponentPad*
%ADD22R,1.800000X1.800000*%
G04 #@! TD*
G04 #@! TA.AperFunction,ComponentPad*
%ADD23C,1.600000*%
G04 #@! TD*
G04 #@! TA.AperFunction,ComponentPad*
%ADD24R,1.600000X1.600000*%
G04 #@! TD*
G04 #@! TA.AperFunction,Conductor*
%ADD25C,0.250000*%
G04 #@! TD*
G04 APERTURE END LIST*
D10*
X212725000Y-108585000D03*
X210185000Y-108585000D03*
X207645000Y-108585000D03*
X205105000Y-108585000D03*
X202565000Y-108585000D03*
X200025000Y-108585000D03*
X197485000Y-108585000D03*
X194945000Y-108585000D03*
X194945000Y-100965000D03*
X197485000Y-100965000D03*
X200025000Y-100965000D03*
X202565000Y-100965000D03*
X205105000Y-100965000D03*
X207645000Y-100965000D03*
X210185000Y-100965000D03*
D11*
X212725000Y-100965000D03*
D12*
X224790000Y-108458000D03*
X224790000Y-103759000D03*
D13*
X224790000Y-99060000D03*
D14*
X198206201Y-136620000D03*
D15*
X198206201Y-141700000D03*
X198206201Y-146780000D03*
X203286201Y-136620000D03*
X203286201Y-141700000D03*
X203286201Y-146780000D03*
X208366201Y-136620000D03*
X208366201Y-141700000D03*
X208366201Y-146780000D03*
D16*
X213360000Y-92710000D03*
X218440000Y-92710000D03*
D17*
X223520000Y-92710000D03*
D16*
X218440000Y-109220000D03*
X218440000Y-104140000D03*
D17*
X218440000Y-99060000D03*
D16*
X184150000Y-92710000D03*
X189230000Y-92710000D03*
D17*
X194310000Y-92710000D03*
D18*
X203835000Y-120015000D03*
X203835000Y-112395000D03*
X226060000Y-112395000D03*
X218440000Y-112395000D03*
X200660000Y-120015000D03*
X200660000Y-112395000D03*
X194310000Y-120015000D03*
X194310000Y-112395000D03*
X184785000Y-120015000D03*
X184785000Y-112395000D03*
X187960000Y-120015000D03*
X187960000Y-112395000D03*
X191135000Y-112395000D03*
X191135000Y-120015000D03*
X197485000Y-112395000D03*
X197485000Y-120015000D03*
D19*
X207010000Y-130810000D03*
X201930000Y-130810000D03*
X194310000Y-135255000D03*
X204470000Y-130810000D03*
X212090000Y-135255000D03*
X199390000Y-130810000D03*
X205740000Y-123825000D03*
X198755000Y-92710000D03*
X201930000Y-123825000D03*
X209550000Y-123825000D03*
X198120000Y-123825000D03*
X208915000Y-92710000D03*
D20*
X207645000Y-112395000D03*
D18*
X215265000Y-112395000D03*
D21*
X205105000Y-92710000D03*
D22*
X202565000Y-92710000D03*
D18*
X214630000Y-97790000D03*
X209550000Y-97790000D03*
D23*
X220345000Y-116880000D03*
D24*
X220345000Y-119380000D03*
D18*
X201295000Y-97790000D03*
X206375000Y-97790000D03*
X193040000Y-97790000D03*
X198120000Y-97790000D03*
X184785000Y-97790000D03*
X189865000Y-97790000D03*
X187960000Y-106045000D03*
X187960000Y-100965000D03*
D23*
X212725000Y-118110000D03*
D24*
X210225000Y-118110000D03*
D18*
X184785000Y-106045000D03*
X184785000Y-100965000D03*
D25*
X184785000Y-106045000D02*
X184785000Y-112395000D01*
X184785000Y-97790000D02*
X184785000Y-100965000D01*
X194310000Y-110490000D02*
X194310000Y-112395000D01*
X184785000Y-100965000D02*
X194310000Y-110490000D01*
X186110001Y-102290001D02*
X184785000Y-100965000D01*
X206319999Y-102290001D02*
X186110001Y-102290001D01*
X207645000Y-100965000D02*
X206319999Y-102290001D01*
X198709399Y-107269399D02*
X200025000Y-108585000D01*
X196260601Y-107269399D02*
X198709399Y-107269399D01*
X194945000Y-108585000D02*
X196260601Y-107269399D01*
X187960000Y-106045000D02*
X187960000Y-112395000D01*
X207645000Y-115530000D02*
X210225000Y-118110000D01*
X207645000Y-112395000D02*
X207645000Y-115530000D01*
X210862090Y-112395000D02*
X207645000Y-112395000D01*
X214040601Y-109216489D02*
X210862090Y-112395000D01*
X214040601Y-102280601D02*
X214040601Y-109216489D01*
X212725000Y-100965000D02*
X214040601Y-102280601D01*
X206319999Y-113720001D02*
X207645000Y-112395000D01*
X189285001Y-113720001D02*
X206319999Y-113720001D01*
X187960000Y-112395000D02*
X189285001Y-113720001D01*
X184150000Y-92710000D02*
X189230000Y-92710000D01*
X189230000Y-97155000D02*
X189865000Y-97790000D01*
X189230000Y-92710000D02*
X189230000Y-97155000D01*
X193040000Y-97790000D02*
X189865000Y-97790000D01*
X205115401Y-99649399D02*
X201931001Y-96464999D01*
X208869399Y-99649399D02*
X205115401Y-99649399D01*
X194365001Y-96464999D02*
X193040000Y-97790000D01*
X201931001Y-96464999D02*
X194365001Y-96464999D01*
X210185000Y-100965000D02*
X208869399Y-99649399D01*
X198120000Y-97790000D02*
X201295000Y-97790000D01*
X201295000Y-99695000D02*
X202565000Y-100965000D01*
X201295000Y-97790000D02*
X201295000Y-99695000D01*
X208619997Y-118689999D02*
X209309998Y-119380000D01*
X209309998Y-119380000D02*
X220345000Y-119380000D01*
X201985001Y-118689999D02*
X208619997Y-118689999D01*
X200660000Y-120015000D02*
X201985001Y-118689999D01*
X224790000Y-103759000D02*
X220980000Y-107569000D01*
X220980000Y-116245000D02*
X220345000Y-116880000D01*
X220980000Y-107569000D02*
X220980000Y-116245000D01*
X214630000Y-100330000D02*
X218440000Y-104140000D01*
X214630000Y-97790000D02*
X214630000Y-100330000D01*
X200138989Y-125616011D02*
X201930000Y-123825000D01*
X187788599Y-125616011D02*
X200138989Y-125616011D01*
X182104989Y-91757999D02*
X182104989Y-119932401D01*
X183197998Y-90664990D02*
X182104989Y-91757999D01*
X182104989Y-119932401D02*
X187788599Y-125616011D01*
X200519989Y-90664989D02*
X183197998Y-90664990D01*
X202565000Y-92710000D02*
X200519989Y-90664989D01*
X199461001Y-121991001D02*
X197485000Y-120015000D01*
X199461001Y-124468681D02*
X199461001Y-121991001D01*
X198763681Y-125166001D02*
X199461001Y-124468681D01*
X187974999Y-125166001D02*
X198763681Y-125166001D01*
X184148999Y-118689999D02*
X183459999Y-119378999D01*
X183459999Y-120651001D02*
X187974999Y-125166001D01*
X186634999Y-118689999D02*
X184148999Y-118689999D01*
X183459999Y-119378999D02*
X183459999Y-120651001D01*
X187960000Y-120015000D02*
X186634999Y-118689999D01*
X225050001Y-91114999D02*
X210510001Y-91114999D01*
X227835011Y-93900009D02*
X225050001Y-91114999D01*
X205626010Y-125616010D02*
X216930402Y-125616010D01*
X201350001Y-121340001D02*
X205626010Y-125616010D01*
X227835011Y-114711401D02*
X227835011Y-93900009D01*
X198810001Y-121340001D02*
X201350001Y-121340001D01*
X210510001Y-91114999D02*
X208915000Y-92710000D01*
X216930402Y-125616010D02*
X227835011Y-114711401D01*
X197485000Y-120015000D02*
X198810001Y-121340001D01*
X194945000Y-123825000D02*
X198120000Y-123825000D01*
X191135000Y-120015000D02*
X194945000Y-123825000D01*
X189809999Y-121340001D02*
X191135000Y-120015000D01*
X186110001Y-121340001D02*
X189809999Y-121340001D01*
X184785000Y-120015000D02*
X186110001Y-121340001D01*
X203835000Y-121920000D02*
X205740000Y-123825000D01*
X203835000Y-120015000D02*
X203835000Y-121920000D01*
X220035001Y-94305001D02*
X218440000Y-92710000D01*
X227385001Y-97653999D02*
X224036003Y-94305001D01*
X224036003Y-94305001D02*
X220035001Y-94305001D01*
X227385001Y-114525001D02*
X227385001Y-97653999D01*
X216744001Y-125166001D02*
X227385001Y-114525001D01*
X207081001Y-125166001D02*
X216744001Y-125166001D01*
X205740000Y-123825000D02*
X207081001Y-125166001D01*
X199390000Y-135436201D02*
X198206201Y-136620000D01*
X199390000Y-130810000D02*
X199390000Y-135436201D01*
X201053200Y-137308999D02*
X201053200Y-144546999D01*
X200364201Y-136620000D02*
X201053200Y-137308999D01*
X201053200Y-144546999D02*
X203286201Y-146780000D01*
X198206201Y-136620000D02*
X200364201Y-136620000D01*
X212090000Y-137976201D02*
X208366201Y-141700000D01*
X212090000Y-135255000D02*
X212090000Y-137976201D01*
X207010000Y-135263799D02*
X208366201Y-136620000D01*
X204470000Y-132723799D02*
X208366201Y-136620000D01*
X204470000Y-130810000D02*
X204470000Y-132723799D01*
X194310000Y-137803799D02*
X198206201Y-141700000D01*
X194310000Y-135255000D02*
X194310000Y-137803799D01*
X204470000Y-135436201D02*
X203286201Y-136620000D01*
X201930000Y-135263799D02*
X203286201Y-136620000D01*
X201930000Y-130810000D02*
X201930000Y-135263799D01*
X182554999Y-112126001D02*
X189118997Y-118689999D01*
X189118997Y-118689999D02*
X192984999Y-118689999D01*
X182554999Y-91944399D02*
X182554999Y-112126001D01*
X192984999Y-118689999D02*
X194310000Y-120015000D01*
X183384399Y-91114999D02*
X182554999Y-91944399D01*
X192714999Y-91114999D02*
X183384399Y-91114999D01*
X194310000Y-92710000D02*
X192714999Y-91114999D01*
X224790000Y-111125000D02*
X226060000Y-112395000D01*
X224790000Y-108458000D02*
X224790000Y-111125000D01*
X218440000Y-109220000D02*
X218440000Y-112395000D01*
X218440000Y-99060000D02*
X224790000Y-99060000D01*
X218440000Y-97790000D02*
X218440000Y-99060000D01*
X213360000Y-92710000D02*
X218440000Y-97790000D01*
X200439202Y-149013001D02*
X206133200Y-149013001D01*
X206133200Y-149013001D02*
X208366201Y-146780000D01*
X198206201Y-146780000D02*
X200439202Y-149013001D01*
M02*
