M48
; DRILL file {KiCad (5.1.6-0-10_14)} date Monday, August 10, 2020 at 07:17:46 PM
; FORMAT={-:-/ absolute / inch / decimal}
; #@! TF.CreationDate,2020-08-10T19:17:46+02:00
; #@! TF.GenerationSoftware,Kicad,Pcbnew,(5.1.6-0-10_14)
; #@! TF.FileFunction,Plated,1,2,PTH
FMAT,2
INCH
T1C0.0315
T2C0.0354
T3C0.0394
T4C0.0472
T5C0.0551
T6C0.0945
T7C0.1102
%
G90
G05
T1
X8.2766Y-4.65
X8.375Y-4.65
X8.675Y-4.6016
X8.675Y-4.7
T2
X7.975Y-3.65
X8.075Y-3.65
T3
X7.275Y-3.85
X7.475Y-3.85
X7.675Y-3.975
X7.675Y-4.275
X7.775Y-3.975
X7.775Y-4.275
X7.875Y-3.975
X7.875Y-4.275
X7.975Y-3.975
X7.975Y-4.275
X8.075Y-3.975
X8.075Y-4.275
X8.175Y-3.975
X8.175Y-4.275
X8.275Y-3.975
X8.275Y-4.275
X8.375Y-3.975
X8.375Y-4.275
X8.175Y-4.425
X8.475Y-4.425
X7.6Y-3.85
X7.8Y-3.85
X7.525Y-4.425
X7.525Y-4.725
X8.25Y-3.85
X8.45Y-3.85
X7.925Y-3.85
X8.125Y-3.85
X7.65Y-4.425
X7.65Y-4.725
X7.4Y-4.425
X7.4Y-4.725
X7.9Y-4.425
X7.9Y-4.725
X8.6Y-4.425
X8.9Y-4.425
X7.275Y-4.425
X7.275Y-4.725
X7.775Y-4.425
X7.775Y-4.725
X8.025Y-4.425
X8.025Y-4.725
X7.4Y-3.975
X7.4Y-4.175
X7.275Y-3.975
X7.275Y-4.175
T4
X8.25Y-4.875
X7.95Y-5.15
X8.15Y-5.15
X7.65Y-5.325
X8.05Y-5.15
X8.35Y-5.325
X7.85Y-5.15
X8.1Y-4.875
X8.225Y-3.65
X7.825Y-3.65
X7.95Y-4.875
X7.8Y-4.875
T5
X8.4Y-3.65
X8.6Y-3.65
X8.8Y-3.65
X8.6Y-3.9
X8.6Y-4.1
X8.6Y-4.3
X7.25Y-3.65
X7.45Y-3.65
X7.65Y-3.65
T6
X8.85Y-3.9
X8.85Y-4.085
X8.85Y-4.27
T7
X7.8034Y-5.3787
X7.8034Y-5.5787
X7.8034Y-5.7787
X8.0034Y-5.3787
X8.0034Y-5.5787
X8.0034Y-5.7787
X8.2034Y-5.3787
X8.2034Y-5.5787
X8.2034Y-5.7787
T0
M30
